<?xml version="1.0" ?><svg data-name="Layer 1" height="88" id="Layer_1" viewBox="0 0 88 88" width="88" xmlns="http://www.w3.org/2000/svg"><title/><path d="M68.38,64.77a36.65,36.65,0,0,0-1.48-5.13c-.63-1.68-1.28-3.36-2-5-.47-1-1-2.1-1.48-3.13l-1-2.07c-.43-.85-.9-1.69-1.37-2.53-.64-1.14-1.29-2.29-1.95-3.43l-1.32-2.23a.33.33,0,0,1,0-.26c.43-1.06.85-2.13,1.31-3.18a16,16,0,0,0,1.39-4.38.39.39,0,0,1,.21-.24l6.42-1.73A2,2,0,0,0,68.38,29c-.48-1.57-2.51-8.06-3-9.74a8.44,8.44,0,0,0-1.55-3,8.17,8.17,0,0,0-4-2.63l-4.23-1.27L54.1,12A11.71,11.71,0,0,1,44,17.08,11.59,11.59,0,0,1,34,12l-5.49,1.59A8.6,8.6,0,0,0,25,15.51a8,8,0,0,0-2.19,3.39c-.09.26-3.1,9.81-3.17,10.28a2,2,0,0,0,1.7,2.25c1.79.36,3.59.73,5.38,1.07a.32.32,0,0,1,.3.34,10.71,10.71,0,0,0,.9,3.48c.66,1.43,1.33,2.84,2,4.25a.68.68,0,0,1-.05.78c-1,1.61-2.06,3.21-3,4.87q-1.56,2.73-3,5.55c-.72,1.47-1.35,3-2,4.5a42,42,0,0,0-1.86,5.79,30.28,30.28,0,0,0-.89,5c-.1,1.26-.14,2.52-.17,3.78s0,2.79,0,4.18a1,1,0,0,0,1,1h48a1,1,0,0,0,.88-.66c0-.12,0-1.8.06-5A26.11,26.11,0,0,0,68.38,64.77ZM50.81,17.65l-.26.41A25.9,25.9,0,0,1,48,21.51c-.19.2-.38.41-.58.61l-.06.06a8.22,8.22,0,0,1-.61.57h0a6.75,6.75,0,0,1-1.48,1,3.09,3.09,0,0,1-1.32.32Q41.16,24,37,17.59A18.09,18.09,0,0,0,50.81,17.65ZM67,74H21V72H55V69H21v0c0,.13,0-.19,0-.14V69l0-.6a30.38,30.38,0,0,1,.57-4.16A39.54,39.54,0,0,1,23,59.29a47,47,0,0,1,1.93-4.9c.7-1.49,1.39-3,2.16-4.42,1-1.76,2-3.49,3-5.2.35-.59.72-1.17,1.1-1.74l1.17-1.78a.32.32,0,0,0,0-.3c-.41-.84-.83-1.69-1.22-2.55l-.2-.42-.18-.36L30,36.06a10.46,10.46,0,0,1-.7-1.94c-.18-.73-.19-1.58-.36-2.23s.79-3.64,1-4.48a.94.94,0,0,0-.15-.8.94.94,0,0,0-.51-.63,1,1,0,0,0-1.2.27,2.18,2.18,0,0,0-.27.65c-.3,1-.58,2.08-.87,3.12,0,.06,0,.13-.07.21l-5.17-1c.49-1.59,3-9.6,3.16-10a5.74,5.74,0,0,1,2-2.57A7,7,0,0,1,29,15.53l3.8-1.12.15,0c.14.28.27.55.42.81.3.52,1.14,2.11,2.32,3.93v0l0,0c.22.37.48.72.73,1.08A22.77,22.77,0,0,0,38.68,23a12.09,12.09,0,0,0,1.46,1.32A6.32,6.32,0,0,0,44,26c5,0,9-7.93,9.81-9.45.13-.25.27-.49.4-.73l.8-1.48,1,.28c1.14.35,2.29.67,3.42,1a5.82,5.82,0,0,1,3.2,2.4,6.64,6.64,0,0,1,.57,1.3q.78,2.46,1.54,4.94l1.55,5-6.13,1.64-1.35-4.06,0-.08a.87.87,0,0,0-.22-.34,1,1,0,0,0-1.17-.54,1,1,0,0,0-.46.3,1,1,0,0,0-.18,1c.25.81.53,1.62.8,2.43s.53,1.58.78,2.37a.65.65,0,0,1,0,.28,11.91,11.91,0,0,1-1.07,3.92c-.66,1.55-1.29,3.11-1.93,4.67a.49.49,0,0,0,0,.34l.17.28h0c.35.61.72,1.21,1.08,1.81s.81,1.34,1.2,2c1,1.7,1.9,3.43,2.81,5.17q1.15,2.22,2.18,4.51,1.08,2.44,2,5a34.34,34.34,0,0,1,1.58,5.74A32.37,32.37,0,0,1,67,69H62v3h5Z"/><rect height="2.96" width="2.95" x="57.02" y="69.01"/><path d="M45.36,32l1.35-1.36h0a1,1,0,0,0-1.37-1.35L44,30.63l-1.36-1.36h0a1,1,0,0,0-1.34,1.37L42.64,32l-1.36,1.36h0a1,1,0,1,0,1.37,1.35L44,33.35l1.36,1.36h0a1,1,0,0,0,1.35-1.37Z"/><path d="M36.85,41.87a.92.92,0,0,0-1,.72c-.09.39-.17.77-.24,1.16q-1.08,5.56-2.14,11.14c-.16.81-.32,1.63-.47,2.45a1.58,1.58,0,0,0,.78,1.4A1,1,0,0,0,35,58.28a2.26,2.26,0,0,0,.17-.56L38,43.44a1.11,1.11,0,0,0-.21-.93A.93.93,0,0,0,36.85,41.87Z"/><path d="M44.14,42.75a1,1,0,0,0-1.19.49h0a1.63,1.63,0,0,0-.08.58v16c0,.66,0,1.32,0,2a.89.89,0,0,0,.21.54A.93.93,0,0,0,44,63a1,1,0,0,0,1-.93V44a.92.92,0,0,0-.2-.6A.94.94,0,0,0,44.14,42.75Z"/><path d="M52.15,43a1,1,0,0,0-.25-.46.94.94,0,0,0-.42-.5,1,1,0,0,0-1.07.08.94.94,0,0,0-.4,1c.1.55.22,1.09.32,1.64q.51,2.65,1,5.32c.31,1.63.63,3.26.94,4.88.19,1,.37,1.92.58,2.87a.94.94,0,0,0,.22.39.89.89,0,0,0,.89.58,1,1,0,0,0,1-1.1,5.1,5.1,0,0,0-.13-.68C54.45,54.94,52.41,44.3,52.15,43Z"/></svg>